<?xml version="1.0" standalone="no"?>
<!DOCTYPE svg PUBLIC "-//W3C//DTD SVG 20010904//EN"
 "http://www.w3.org/TR/2001/REC-SVG-20010904/DTD/svg10.dtd">
<svg version="1.0" xmlns="http://www.w3.org/2000/svg"
 width="512.000000pt" height="512.000000pt" viewBox="0 0 512.000000 512.000000"
 preserveAspectRatio="xMidYMid meet">
<metadata>
Created by potrace 1.14, written by Peter Selinger 2001-2017
</metadata>
<g transform="translate(0.000000,512.000000) scale(0.100000,-0.100000)"
fill="#000000" stroke="none">
<path d="M2498 5102 c-29 -19 -45 -41 -121 -164 -27 -42 -54 -82 -62 -88 -7
-6 -68 -24 -135 -40 -67 -16 -133 -36 -147 -45 -27 -18 -53 -71 -53 -108 0
-23 40 -91 77 -132 10 -11 40 -46 66 -77 l48 -57 -6 -108 c-4 -59 -8 -123 -10
-141 -1 -18 6 -49 16 -69 l19 -37 -118 -154 c-249 -327 -320 -420 -383 -502
-259 -337 -359 -471 -373 -498 -36 -69 -9 -154 62 -195 27 -16 53 -20 137 -20
l104 0 -17 -26 c-21 -32 -161 -240 -380 -563 -208 -308 -204 -301 -198 -360 6
-54 27 -88 71 -115 29 -17 49 -19 233 -22 l34 -1 -35 -47 c-19 -27 -47 -67
-63 -89 -16 -23 -108 -154 -204 -290 -96 -137 -181 -262 -188 -279 -33 -73 18
-174 98 -194 19 -5 283 -9 585 -9 l550 1 5 -284 c5 -309 7 -318 64 -360 31
-24 32 -24 373 -27 385 -3 392 -2 439 67 l24 36 0 282 0 283 563 0 564 0 43
23 c76 40 103 134 59 206 -11 18 -121 176 -245 351 -123 176 -224 321 -224
324 0 3 48 6 107 6 95 0 111 3 148 25 54 31 79 81 72 142 -4 35 -25 74 -100
186 -52 78 -182 270 -287 427 -106 157 -194 290 -197 296 -2 7 22 10 74 9 114
-2 150 7 191 48 31 32 36 43 39 94 5 67 9 59 -122 230 -49 65 -181 237 -292
383 -112 146 -217 283 -234 305 -16 22 -77 101 -134 175 -102 133 -103 135
-88 160 18 27 21 86 11 235 l-7 100 89 105 c92 108 108 141 95 198 -12 56 -49
78 -200 118 l-140 36 -74 120 c-58 96 -80 123 -107 134 -45 19 -83 18 -116 -4z"/>
</g>
</svg>
